<?xml version="1.0" standalone="no"?>
<!DOCTYPE svg PUBLIC "-//W3C//DTD SVG 20010904//EN"
 "http://www.w3.org/TR/2001/REC-SVG-20010904/DTD/svg10.dtd">
<svg version="1.0" xmlns="http://www.w3.org/2000/svg"
 width="821.000000pt" height="411.000000pt" viewBox="0 0 821.000000 411.000000"
 preserveAspectRatio="xMidYMid meet">

<g transform="translate(0.000000,411.000000) scale(0.100000,-0.100000)"
fill="#000000" stroke="none">
<path d="M2055 3643 c3 -15 60 -162 126 -326 120 -298 120 -299 106 -336 -8
-20 -50 -116 -92 -213 -73 -167 -79 -179 -119 -202 -52 -31 -616 -266 -638
-266 -8 0 -20 6 -25 13 -6 6 -59 147 -118 312 -60 165 -111 303 -115 308 -3 4
-28 -2 -55 -14 l-48 -21 7 -111 c6 -95 4 -112 -10 -128 -20 -23 -57 -25 -77
-4 -15 14 -20 46 -33 208 -5 65 -3 82 11 97 9 10 66 42 127 71 l111 54 44 93
c24 51 43 95 43 98 0 7 -424 -207 -442 -224 -14 -12 -18 -32 -18 -97 l0 -83
-270 -211 -270 -212 0 -387 c0 -213 4 -392 8 -398 4 -7 124 -102 267 -213
l260 -202 6 -102 c4 -56 7 -147 8 -203 1 -63 6 -106 13 -116 7 -9 132 -92 278
-183 146 -92 276 -178 291 -191 14 -13 32 -24 41 -24 9 0 82 43 162 95 80 52
149 96 154 97 5 2 59 -36 119 -84 61 -48 117 -87 124 -88 41 -6 67 7 161 81
57 45 108 86 113 90 6 5 74 -34 160 -91 83 -55 158 -100 168 -100 9 0 25 8 35
17 19 20 127 90 392 256 96 60 181 116 188 125 8 11 12 56 12 142 0 70 3 161
6 203 l7 76 262 203 c145 112 266 212 269 223 3 11 6 189 6 397 l0 376 -37 29
c-21 16 -143 112 -270 212 l-233 182 0 83 c0 55 -4 87 -12 94 -21 16 -528 274
-528 268 0 -4 14 -31 31 -61 38 -68 39 -63 -43 -398 -37 -154 -65 -250 -74
-254 -7 -3 -98 20 -201 50 l-188 54 2 31 c1 18 29 92 62 165 34 74 61 139 61
144 0 6 -58 130 -129 276 -71 146 -132 276 -136 289 -17 54 -74 84 -60 31z
m-1215 -1003 c27 -27 25 -56 -4 -83 -13 -12 -81 -65 -150 -117 l-126 -95 0
-264 c0 -232 -2 -267 -17 -283 -21 -24 -55 -23 -78 2 -16 17 -17 42 -13 302 2
157 8 290 13 300 14 23 324 258 341 258 8 0 23 -9 34 -20z m1239 -494 c7 -8
11 -27 9 -43 -3 -32 -23 -44 -237 -156 l-131 -68 0 -82 c-1 -93 -12 -156 -32
-168 -22 -14 -47 -10 -68 11 -18 18 -20 33 -20 153 0 72 4 138 9 145 13 21
404 222 432 222 15 0 32 -6 38 -14z m-699 -706 c23 -23 26 -53 6 -73 -8 -7
-79 -56 -159 -108 l-145 -94 -6 -115 c-4 -63 -11 -125 -16 -137 -13 -32 -55
-40 -82 -17 -20 18 -20 25 -14 162 3 79 10 152 16 161 10 21 347 241 367 241
7 0 22 -9 33 -20z m885 -222 c13 -20 15 -44 9 -163 -7 -149 -16 -175 -59 -175
-12 0 -30 9 -40 20 -16 18 -17 35 -13 165 3 95 9 150 18 160 19 23 66 19 85
-7z"/>
<path d="M7085 3149 c-79 -12 -161 -53 -180 -89 -13 -24 -14 -84 -7 -411 l7
-383 34 -23 c39 -26 80 -29 120 -9 54 28 56 37 53 193 l-4 143 66 0 66 0 0
-143 c0 -159 6 -178 66 -203 50 -21 80 -17 115 14 l32 29 -2 374 c-1 206 -4
389 -7 407 -7 37 -38 63 -104 85 -60 20 -181 28 -255 16z m247 -64 c26 -9 51
-22 56 -28 5 -7 12 -182 16 -389 5 -335 4 -378 -10 -392 -20 -20 -53 -20 -82
0 -21 15 -22 21 -22 180 l0 164 -110 0 -110 0 0 -155 c0 -142 -2 -157 -20
-175 -23 -23 -58 -26 -84 -7 -17 12 -19 41 -24 364 -3 192 -2 362 2 377 8 31
67 62 145 76 63 12 186 4 243 -15z"/>
<path d="M7107 2930 c-31 -24 -50 -78 -41 -114 10 -42 59 -76 108 -76 51 0 83
21 103 67 29 71 -23 143 -102 143 -27 0 -51 -7 -68 -20z m119 -55 c35 -54 -33
-116 -85 -77 -33 24 -37 46 -17 77 23 35 79 35 102 0z"/>
<path d="M7614 3126 l-34 -34 0 -430 0 -430 224 -7 c201 -7 227 -6 260 10 40
19 66 59 66 100 0 34 -25 82 -49 95 -11 5 -78 10 -150 10 l-131 0 0 331 0 331
-29 29 c-24 24 -38 29 -76 29 -40 0 -52 -5 -81 -34z m124 -28 c9 -9 12 -100
12 -349 0 -259 3 -340 13 -346 6 -4 77 -10 157 -13 l145 -5 14 -29 c12 -26 12
-33 0 -55 l-15 -26 -214 0 -215 0 -3 399 c-2 361 -1 401 14 418 19 20 74 24
92 6z"/>
<path d="M4177 3124 c-4 -4 -7 -204 -7 -445 0 -389 2 -438 16 -443 27 -11 381
-7 411 5 40 15 71 47 99 101 24 47 24 50 24 355 0 349 1 346 -81 400 l-42 28
-206 3 c-114 2 -210 0 -214 -4z m440 -70 c57 -42 58 -50 53 -381 l-5 -303 -43
-42 -42 -43 -180 -3 -180 -4 0 402 0 401 184 -3 c168 -3 187 -5 213 -24z"/>
<path d="M4327 2943 c-4 -3 -7 -124 -7 -268 0 -199 3 -265 13 -272 21 -16 184
-1 203 19 14 14 18 47 24 195 13 323 9 333 -134 333 -51 0 -96 -3 -99 -7z
m173 -53 c13 -8 15 -41 12 -211 -1 -110 -6 -208 -11 -217 -7 -14 -21 -16 -70
-14 l-61 4 0 224 0 224 58 0 c31 0 64 -5 72 -10z"/>
<path d="M4910 3117 c-21 -7 -39 -22 -45 -37 -6 -16 -8 -164 -5 -417 l5 -391
24 -26 c13 -14 39 -28 57 -32 44 -8 102 20 112 55 4 14 7 203 7 420 l0 394
-25 18 c-34 24 -88 31 -130 16z m85 -47 l26 -10 -1 -390 c-1 -369 -3 -391 -20
-400 -31 -17 -58 -11 -79 17 -21 26 -21 35 -21 399 1 341 2 374 18 383 22 13
44 13 77 1z"/>
<path d="M5953 3122 c-13 -4 -32 -15 -43 -24 -19 -17 -20 -29 -20 -417 l0
-399 28 -30 c46 -49 102 -54 153 -13 l24 19 5 399 c6 417 5 429 -38 452 -26
14 -84 21 -109 13z m71 -52 l26 -10 -2 -392 -3 -393 -27 -9 c-20 -7 -33 -5
-52 8 l-26 16 0 389 c0 363 1 390 18 394 29 8 40 7 66 -3z"/>
<path d="M5295 3115 c-5 -2 -22 -6 -36 -9 -18 -4 -33 -18 -45 -43 -17 -35 -18
-65 -16 -371 2 -306 4 -338 21 -378 30 -68 61 -81 210 -89 142 -8 192 1 240
41 62 52 69 71 82 215 12 147 7 190 -34 250 l-23 34 -99 5 c-85 4 -102 3 -122
-13 -33 -26 -33 -104 0 -135 13 -12 27 -22 31 -22 5 0 17 -10 28 -22 16 -19
18 -32 13 -68 -7 -52 -26 -70 -71 -70 -57 0 -64 22 -63 200 0 141 8 243 21
255 2 2 61 7 131 9 141 6 168 16 186 68 18 52 13 82 -20 114 l-30 29 -197 2
c-108 1 -201 0 -207 -2z m401 -69 c18 -26 18 -51 -2 -70 -12 -13 -39 -16 -129
-16 -192 0 -195 -5 -194 -267 1 -270 17 -312 114 -297 85 13 105 37 105 122 0
72 -7 84 -72 133 -16 11 -28 29 -28 39 0 32 24 41 102 38 l73 -3 25 -50 c23
-45 25 -62 25 -170 0 -66 -5 -127 -10 -136 -6 -8 -30 -33 -54 -55 l-44 -39
-148 0 -149 0 -27 27 c-26 27 -28 34 -34 155 -10 175 -10 458 0 516 14 88 40
96 274 94 144 -2 160 -4 173 -21z"/>
<path d="M6255 3110 c-44 -17 -63 -74 -45 -139 16 -62 29 -70 105 -63 l66 5
-2 -332 c-1 -182 0 -333 2 -335 55 -42 122 -48 175 -15 l34 21 0 126 c0 70 3
218 7 329 l6 202 61 3 60 3 24 47 c28 54 25 105 -9 139 -18 18 -34 19 -241 18
-123 0 -232 -4 -243 -9z m455 -50 c16 -25 11 -59 -10 -80 -15 -15 -33 -20 -74
-20 -31 0 -58 -5 -63 -12 -6 -8 -13 -152 -17 -343 -5 -243 -10 -331 -19 -337
-18 -11 -81 -10 -93 2 -7 7 -9 122 -6 344 l5 333 -39 6 c-22 4 -60 7 -85 7
-33 0 -49 5 -53 16 -10 26 -7 58 8 79 13 19 26 20 225 20 177 0 213 -2 221
-15z"/>
<path d="M6114 1879 c-17 -5 -37 -15 -43 -23 -9 -10 -12 -124 -12 -417 1 -457
-6 -423 90 -461 46 -18 77 -22 176 -22 127 -1 204 15 255 54 l25 19 3 401 c5
452 9 428 -72 449 -29 7 -54 7 -79 0 -67 -18 -67 -17 -67 -370 0 -346 3 -329
-58 -329 -58 0 -57 -8 -62 341 l-5 322 -25 18 c-31 23 -86 31 -126 18z m80
-49 l26 -10 0 -314 0 -315 38 -31 c34 -28 42 -31 91 -27 94 7 91 -4 91 368 0
313 0 318 21 330 21 11 84 5 93 -10 3 -4 6 -173 7 -375 l1 -367 -22 -24 c-57
-61 -275 -74 -376 -24 l-49 24 -7 65 c-4 36 -7 208 -7 382 0 287 2 319 17 328
22 12 44 12 76 0z"/>
<path d="M4691 1871 c-12 -8 -13 -74 -8 -438 7 -420 7 -428 28 -445 33 -28
111 -24 146 6 l28 24 3 156 3 156 147 0 c168 0 185 6 202 70 8 30 7 47 -3 72
-25 59 -36 63 -196 68 l-146 5 0 55 0 55 153 5 c149 5 154 6 172 30 39 50 37
121 -3 157 -20 19 -41 21 -267 27 -143 3 -251 2 -259 -3z m491 -58 c20 -18 23
-54 8 -84 -10 -17 -23 -19 -160 -19 -81 0 -155 -3 -164 -6 -24 -9 -24 -199 0
-208 9 -3 80 -6 159 -6 137 0 145 -1 159 -22 20 -28 20 -48 2 -73 -12 -17 -26
-19 -159 -16 -92 1 -153 -2 -166 -9 -20 -10 -21 -19 -21 -168 0 -110 -4 -162
-12 -170 -17 -17 -85 -15 -91 2 -3 8 -6 190 -7 405 l-1 391 217 0 c188 0 220
-2 236 -17z"/>
<path d="M5390 1868 c0 -7 0 -204 0 -438 0 -398 1 -425 18 -442 37 -37 124
-36 162 2 18 18 20 34 20 170 0 167 3 172 59 124 46 -38 50 -51 55 -165 5 -91
8 -106 29 -127 34 -34 92 -39 149 -13 l45 20 8 130 c8 144 6 152 -59 221 -21
23 -36 42 -35 44 2 1 21 13 42 25 20 13 42 31 47 41 13 25 13 271 -1 307 -15
40 -48 73 -94 94 -35 16 -67 19 -242 19 -156 0 -203 -3 -203 -12z m430 -53
c61 -32 70 -55 70 -192 0 -124 0 -125 -29 -154 -24 -23 -38 -29 -73 -29 -75 0
-104 -41 -39 -55 34 -7 82 -56 110 -112 17 -34 21 -61 21 -134 0 -106 -12
-129 -66 -129 -51 0 -64 27 -64 133 0 100 -10 128 -65 175 -39 35 -68 45 -111
40 l-29 -3 -3 -159 c-2 -101 -7 -165 -14 -173 -7 -9 -26 -13 -47 -11 l-36 3
-6 90 c-9 121 -11 587 -3 664 l7 61 174 0 c134 0 181 -3 203 -15z"/>
<path d="M5563 1700 c-22 -9 -23 -15 -23 -109 0 -112 -1 -111 83 -111 104 0
172 72 151 158 -7 28 -18 41 -44 54 -38 19 -129 23 -167 8z m155 -62 c18 -15
15 -52 -9 -82 -17 -22 -29 -26 -68 -26 l-48 0 -5 52 c-8 77 -5 80 61 72 31 -3
62 -11 69 -16z"/>
<path d="M6770 1862 l-35 -17 -3 -400 c-2 -382 -1 -401 17 -432 43 -69 157
-63 180 10 6 19 11 189 12 414 2 419 4 404 -58 430 -43 17 -71 16 -113 -5z
m101 -42 c18 -10 19 -25 19 -400 0 -385 0 -389 -21 -400 -27 -15 -66 -5 -78
19 -7 12 -11 164 -11 397 -1 299 2 379 12 385 18 12 56 11 79 -1z"/>
<path d="M7130 1870 c-8 -5 -23 -11 -33 -14 -36 -11 -49 -99 -23 -161 17 -39
15 -38 105 -35 l64 2 -7 -330 -8 -329 35 -22 c46 -28 104 -27 148 2 l34 23 5
329 5 330 57 -3 c55 -4 56 -3 82 34 19 28 26 51 26 84 -1 51 -15 75 -54 90
-33 12 -414 13 -436 0z m430 -50 c19 -12 17 -68 -4 -88 -11 -11 -39 -19 -79
-22 l-62 -5 -6 -90 c-4 -49 -7 -201 -8 -337 -1 -234 -2 -248 -20 -258 -29 -15
-77 -12 -91 5 -10 12 -11 84 -6 339 6 265 5 325 -6 332 -7 5 -47 11 -88 14
l-75 5 -3 43 c-5 73 -6 73 228 72 113 -1 212 -5 220 -10z"/>
</g>
</svg>
