<?xml version="1.0" encoding="utf-8"?>
<!-- Generator: Adobe Illustrator 19.2.1, SVG Export Plug-In . SVG Version: 6.00 Build 0)  -->
<svg version="1.1" id="layer" xmlns="http://www.w3.org/2000/svg" xmlns:xlink="http://www.w3.org/1999/xlink" x="0px" y="0px"
	 viewBox="0 0 652 652" style="enable-background:new 0 0 652 652;" xml:space="preserve">
<style type="text/css">
	.st0{fill:#0086CC;}
	.st1{fill:#231F20;}
	.st2{fill:#808184;}
</style>
<path class="st0" d="M525,247.5c-30.7,0-55.5,24.9-55.5,55.5c0,30.7,24.9,55.5,55.5,55.5c30.7,0,55.5-24.9,55.5-55.5
	C580.5,272.4,555.7,247.5,525,247.5 M525,350.8c-26.4,0-47.8-21.4-47.8-47.8c0-26.4,21.4-47.8,47.8-47.8c26.4,0,47.8,21.4,47.8,47.8
	C572.8,329.4,551.4,350.8,525,350.8"/>
<polyline class="st0" points="613,396.8 557.2,341 565.1,333 621,388.8 "/>
<path class="st1" d="M49.4,341.1c-9.9,0-19.9-2.2-28.4-6.5l5.5-9.2c7.7,3.8,14.6,6,23.4,6c10.6,0,17-4.3,17-11.5
	c0-5.3-4-8.7-12.9-10.8l-9.3-2.2c-7.9-1.9-13.5-4.6-16.8-8.7c-2.4-2.9-3.6-6.4-3.6-10.6c0-12.8,12-21.5,29.4-21.5
	c9.9,0,19.7,2.4,27.4,6.9l-6.5,8.5c-8-4-13.5-5.5-20.4-5.5c-8.5,0-14.1,3.9-14.1,9.8c0,4.5,3,6.8,11.5,8.9l10.2,2.5
	c12.5,3,21.3,9.7,21.3,20.6C83.1,330,71.5,341.1,49.4,341.1"/>
<rect x="102.2" y="267.4" class="st1" width="14.8" height="72.4"/>
<path class="st1" d="M163,341.1c-9.9,0-19.9-2.2-28.4-6.5l5.5-9.2c7.7,3.8,14.6,6,23.4,6c10.6,0,17-4.3,17-11.5
	c0-5.3-4-8.7-12.9-10.8l-9.3-2.2c-7.9-1.9-13.5-4.6-16.8-8.7c-2.4-2.9-3.6-6.4-3.6-10.6c0-12.8,12-21.5,29.4-21.5
	c9.9,0,19.7,2.4,27.4,6.9l-6.5,8.5c-8-4-13.5-5.5-20.4-5.5c-8.5,0-14.1,3.9-14.1,9.8c0,4.5,3,6.8,11.5,8.9l10.2,2.5
	c12.5,3,21.3,9.7,21.3,20.6C196.8,330,185.1,341.1,163,341.1"/>
<polyline class="st1" points="262.3,277.4 240.5,277.4 240.5,339.8 226.1,339.8 226.1,277.4 204.3,277.4 204.3,267.4 264.2,267.4 
	"/>
<path class="st1" d="M314.9,339.8l-7.5-11.2c-6-8.9-10-13.9-14.8-17.9c-1.6-1.4-2.9-2.1-5.6-2.2v31.3h-14.1v-72.4h26.4
	c19.4,0,28.1,9.4,28.1,20.7c0,11.2-8.5,19.9-21.5,19.9c3.1,1.4,8.9,8.4,13.4,14.4l12.7,17.4 M287,277.1V300h7.4
	c7.5,0,11.5-0.8,14.1-3c2.4-2,3.9-5,3.9-8.8c0-7.3-4.8-11.1-17.5-11.1H287z"/>
<rect x="347.4" y="267.4" class="st1" width="14.8" height="72.4"/>
<polyline class="st1" points="425.6,339.8 407.7,311.1 390.4,339.8 372.8,339.8 399.3,301 376,267.4 393.5,267.4 407.4,289.8 
	421,267.4 438,267.4 416,300.1 442.8,339.8 "/>
<polyline class="st2" points="250.8,356 240.5,356 240.5,352.8 265.6,352.8 265.6,356 255.3,356 255.3,382.5 250.8,382.5 "/>
<path class="st2" d="M281.3,383c-9,0-15.3-6.1-15.3-15.1c0-9.4,6.7-15.6,15.7-15.6c9.3,0,15.3,6.2,15.3,15
	C297.1,377.5,290,383,281.3,383 M281.6,379.8c7,0,10.9-5.6,10.9-12.3c0-5.9-3.5-12.1-10.8-12.1c-7.3,0-10.9,6-10.9,12.4
	C270.7,374.1,274.6,379.8,281.6,379.8L281.6,379.8z"/>
<path class="st2" d="M316,383c-9,0-15.3-6.1-15.3-15.1c0-9.4,6.6-15.6,15.7-15.6c9.3,0,15.3,6.2,15.3,15
	C331.8,377.5,324.7,383,316,383 M316.3,379.8c7,0,10.9-5.6,10.9-12.3c0-5.9-3.5-12.1-10.8-12.1c-7.3,0-10.9,6-10.9,12.4
	C305.4,374.1,309.3,379.8,316.3,379.8L316.3,379.8z"/>
<polyline class="st2" points="337.4,352.8 341.8,352.8 341.8,379.3 356.4,379.3 356.4,382.5 337.4,382.5 "/>
<path class="st2" d="M361.2,353.2c1.9-0.4,5-0.7,8-0.7c4.4,0,7.2,0.7,9.3,2.2c1.8,1.1,2.9,2.9,2.9,5.3c0,2.9-2.2,5.4-5.7,6.5v0.1
	c3.2,0.7,7,3,7,7.4c0,2.6-1.2,4.5-2.9,6c-2.3,1.9-6.1,2.8-11.7,2.8c-3,0-5.3-0.2-6.8-0.4 M365.6,365.4h4c4.6,0,7.3-2.2,7.3-5
	c0-3.4-3-4.9-7.4-4.9c-2,0-3.2,0.1-3.9,0.3V365.4z M365.6,379.6c0.9,0.1,2.1,0.2,3.7,0.2c4.5,0,8.7-1.4,8.7-5.8c0-4-4-5.7-8.8-5.7
	h-3.6V379.6z"/>
<path class="st2" d="M401.8,383c-9,0-15.3-6.1-15.3-15.1c0-9.4,6.7-15.6,15.7-15.6c9.3,0,15.3,6.2,15.3,15
	C417.5,377.5,410.4,383,401.8,383 M402,379.8c7,0,10.9-5.6,10.9-12.3c0-5.9-3.5-12.1-10.8-12.1c-7.3,0-10.9,6-10.9,12.4
	C391.1,374.1,395.1,379.8,402,379.8L402,379.8z"/>
<path class="st2" d="M440.4,382.5l-4.4-6.6c-1.8-2.5-2.8-4.1-3.9-5.9h-0.1c-1,1.7-2,3.3-3.7,5.9l-4.1,6.5h-5l10.4-15l-10-14.7h5.1
	l4.5,7c1.3,1.9,2.2,3.4,3.1,5h0.1c1-1.8,1.8-3.1,3.1-5l4.6-7h5.1L435,367.2l10.6,15.3"/>
</svg>
